<svg width="365" height="131" viewBox="0 0 365 131" fill="none" xmlns="http://www.w3.org/2000/svg">
<path d="M21.424 130.248C17.392 130.248 14.032 126.888 14.032 122.76C14.032 118.728 17.392 115.368 21.424 115.368C25.552 115.368 28.912 118.728 28.912 122.76C28.912 126.888 25.552 130.248 21.424 130.248ZM21.424 116.232C17.872 116.232 14.896 119.208 14.896 122.76C14.896 126.408 17.872 129.384 21.424 129.384C25.072 129.384 28.048 126.408 28.048 122.76C28.048 119.208 25.072 116.232 21.424 116.232ZM27.664 107.208V107.592H15.376V107.208C15.376 98.856 19.696 94.248 23.536 90.216C26.512 87.048 29.104 84.264 29.104 80.328C29.104 75.432 25.936 72.456 20.656 72.456C14.896 72.456 13.072 76.872 12.496 79.464L12.4 79.944L0.592 76.968L0.688 76.584C2.992 66.6 10.864 60.648 21.52 60.648C32.656 60.648 42.064 68.904 42.064 78.6C42.064 86.472 38.128 90.504 34.384 94.344C30.928 97.896 27.664 101.16 27.664 107.208ZM16.24 106.728H26.896C26.992 100.68 30.256 97.32 33.808 93.768C37.456 90.024 41.296 86.088 41.296 78.6C41.296 69.288 32.272 61.512 21.52 61.512C11.344 61.512 3.952 67.08 1.648 76.392L11.728 78.888C12.88 74.28 16.144 71.592 20.656 71.592C26.416 71.592 29.968 74.952 29.968 80.328C29.968 84.552 27.184 87.624 24.112 90.792C20.464 94.632 16.336 99.048 16.24 106.728Z" fill="#A866FD"/>
<path d="M174.232 93.664C168.856 93.664 164.376 89.184 164.376 83.68C164.376 78.304 168.856 73.824 174.232 73.824C179.736 73.824 184.216 78.304 184.216 83.68C184.216 89.184 179.736 93.664 174.232 93.664ZM174.232 74.976C169.496 74.976 165.528 78.944 165.528 83.68C165.528 88.544 169.496 92.512 174.232 92.512C179.096 92.512 183.064 88.544 183.064 83.68C183.064 78.944 179.096 74.976 174.232 74.976ZM182.552 62.944V63.456H166.168V62.944C166.168 51.808 171.928 45.664 177.048 40.288C181.016 36.064 184.472 32.352 184.472 27.104C184.472 20.576 180.248 16.608 173.208 16.608C165.528 16.608 163.096 22.496 162.328 25.952L162.2 26.592L146.456 22.624L146.584 22.112C149.656 8.8 160.152 0.863998 174.36 0.863998C189.208 0.863998 201.752 11.872 201.752 24.8C201.752 35.296 196.504 40.672 191.512 45.792C186.904 50.528 182.552 54.88 182.552 62.944ZM167.32 62.304H181.528C181.656 54.24 186.008 49.76 190.744 45.024C195.608 40.032 200.728 34.784 200.728 24.8C200.728 12.384 188.696 2.016 174.36 2.016C160.792 2.016 150.936 9.43999 147.864 21.856L161.304 25.184C162.84 19.04 167.192 15.456 173.208 15.456C180.888 15.456 185.624 19.936 185.624 27.104C185.624 32.736 181.912 36.832 177.816 41.056C172.952 46.176 167.448 52.064 167.32 62.304Z" fill="#D434FE"/>
<path d="M343.424 130.248C339.392 130.248 336.032 126.888 336.032 122.76C336.032 118.728 339.392 115.368 343.424 115.368C347.552 115.368 350.912 118.728 350.912 122.76C350.912 126.888 347.552 130.248 343.424 130.248ZM343.424 116.232C339.872 116.232 336.896 119.208 336.896 122.76C336.896 126.408 339.872 129.384 343.424 129.384C347.072 129.384 350.048 126.408 350.048 122.76C350.048 119.208 347.072 116.232 343.424 116.232ZM349.664 107.208V107.592H337.376V107.208C337.376 98.856 341.696 94.248 345.536 90.216C348.512 87.048 351.104 84.264 351.104 80.328C351.104 75.432 347.936 72.456 342.656 72.456C336.896 72.456 335.072 76.872 334.496 79.464L334.4 79.944L322.592 76.968L322.688 76.584C324.992 66.6 332.864 60.648 343.52 60.648C354.656 60.648 364.064 68.904 364.064 78.6C364.064 86.472 360.128 90.504 356.384 94.344C352.928 97.896 349.664 101.16 349.664 107.208ZM338.24 106.728H348.896C348.992 100.68 352.256 97.32 355.808 93.768C359.456 90.024 363.296 86.088 363.296 78.6C363.296 69.288 354.272 61.512 343.52 61.512C333.344 61.512 325.952 67.08 323.648 76.392L333.728 78.888C334.88 74.28 338.144 71.592 342.656 71.592C348.416 71.592 351.968 74.952 351.968 80.328C351.968 84.552 349.184 87.624 346.112 90.792C342.464 94.632 338.336 99.048 338.24 106.728Z" fill="#A866FD"/>
</svg>
